<?xml version="1.0" encoding="UTF-8" standalone="no"?> <svg width="24" height="24" viewBox="0 0 24 24" fill="none" xmlns="http://www.w3.org/2000/svg">
<path d="M10 19C10 18.6044 10.1173 18.2178 10.3371 17.8889C10.5568 17.56 10.8692 17.3036 11.2346 17.1522C11.6001 17.0009 12.0022 16.9613 12.3902 17.0384C12.7781 17.1156 13.1345 17.3061 13.4142 17.5858C13.6939 17.8655 13.8844 18.2219 13.9616 18.6098C14.0387 18.9978 13.9991 19.3999 13.8478 19.7654C13.6964 20.1308 13.44 20.4432 13.1111 20.6629C12.7822 20.8827 12.3956 21 12 21C11.4696 21 10.9609 20.7893 10.5858 20.4142C10.2107 20.0391 10 19.5304 10 19V19ZM10 12C10 11.6044 10.1173 11.2178 10.3371 10.8889C10.5568 10.56 10.8692 10.3036 11.2346 10.1522C11.6001 10.0009 12.0022 9.96126 12.3902 10.0384C12.7781 10.1156 13.1345 10.3061 13.4142 10.5858C13.6939 10.8655 13.8844 11.2219 13.9616 11.6098C14.0387 11.9978 13.9991 12.3999 13.8478 12.7654C13.6964 13.1308 13.44 13.4432 13.1111 13.6629C12.7822 13.8827 12.3956 14 12 14C11.4696 14 10.9609 13.7893 10.5858 13.4142C10.2107 13.0391 10 12.5304 10 12ZM10 5C10 4.60444 10.1173 4.21776 10.3371 3.88886C10.5568 3.55996 10.8692 3.30362 11.2346 3.15224C11.6001 3.00087 12.0022 2.96126 12.3902 3.03843C12.7781 3.1156 13.1345 3.30608 13.4142 3.58579C13.6939 3.86549 13.8844 4.22186 13.9616 4.60982C14.0387 4.99778 13.9991 5.39992 13.8478 5.76537C13.6964 6.13082 13.44 6.44318 13.1111 6.66294C12.7822 6.8827 12.3956 7 12 7C11.4696 7 10.9609 6.78929 10.5858 6.41421C10.2107 6.03914 10 5.53043 10 5V5Z" fill="black"/>
</svg>
